<svg viewBox="0 0 900 260" xmlns="http://www.w3.org/2000/svg" font-family="IBM Plex Sans, Segoe UI, sans-serif" font-size="12.5">
<defs><marker id="a6" viewBox="0 0 10 10" refX="9" refY="5" markerWidth="7" markerHeight="7" orient="auto-start-reverse"><path d="M0 0L10 5 0 10z" fill="#7b8494"/></marker></defs>
<rect x="10" y="60" width="170" height="120" rx="10" fill="#f6f8fb" stroke="#dfe4ec"/>
<text x="95" y="90" text-anchor="middle" font-weight="600" fill="#1c2430">Browser</text>
<text x="95" y="112" text-anchor="middle" fill="#4a5566">React chat UI</text>
<text x="95" y="130" text-anchor="middle" fill="#4a5566">embedded viz (optional)</text>
<text x="95" y="160" text-anchor="middle" fill="#7b8494">session cookie only</text>
<line x1="182" y1="120" x2="238" y2="120" stroke="#7b8494" stroke-width="2" marker-end="url(#a6)" marker-start="url(#a6)"/>
<text x="210" y="140" text-anchor="middle" fill="#7b8494" font-size="11">HTTPS /api</text>
<rect x="240" y="30" width="250" height="180" rx="10" fill="#e8f0f9" stroke="#1c5d99" stroke-width="1.5"/>
<text x="365" y="56" text-anchor="middle" font-weight="700" fill="#0f3d6b">Portal API (Node.js + Express)</text>
<g fill="#4a5566"><rect x="258" y="70" width="214" height="28" rx="6" fill="#fff" stroke="#c9d1dc"/><text x="365" y="89" text-anchor="middle">/api/login · session JWT</text>
<rect x="258" y="104" width="214" height="28" rx="6" fill="#fff" stroke="#c9d1dc"/><text x="365" y="123" text-anchor="middle">/api/chat · LLM ↔ MCP tool loop</text>
<rect x="258" y="138" width="214" height="28" rx="6" fill="#fff" stroke="#c9d1dc"/><text x="365" y="157" text-anchor="middle">/api/embed-token · Connected App JWT</text>
<rect x="258" y="172" width="214" height="28" rx="6" fill="#fff" stroke="#c9d1dc"/><text x="365" y="191" text-anchor="middle">audit.jsonl · rate limit · helmet</text></g>
<line x1="492" y1="80" x2="588" y2="80" stroke="#7b8494" stroke-width="2" marker-end="url(#a6)" marker-start="url(#a6)"/>
<text x="540" y="68" text-anchor="middle" fill="#7b8494" font-size="11">LLM API</text>
<rect x="590" y="50" width="140" height="60" rx="10" fill="#f6f8fb" stroke="#dfe4ec"/>
<text x="660" y="75" text-anchor="middle" font-weight="600" fill="#1c2430">LLM</text>
<text x="660" y="95" text-anchor="middle" fill="#4a5566">Claude / others</text>
<line x1="492" y1="160" x2="588" y2="160" stroke="#7b8494" stroke-width="2" marker-end="url(#a6)" marker-start="url(#a6)"/>
<text x="540" y="148" text-anchor="middle" fill="#7b8494" font-size="11">MCP HTTP</text>
<rect x="590" y="130" width="140" height="60" rx="10" fill="#f6f8fb" stroke="#dfe4ec"/>
<text x="660" y="155" text-anchor="middle" font-weight="600" fill="#1c2430">Tableau MCP</text>
<text x="660" y="175" text-anchor="middle" fill="#4a5566">127.0.0.1:3927</text>
<line x1="732" y1="160" x2="758" y2="160" stroke="#7b8494" stroke-width="2" marker-end="url(#a6)" marker-start="url(#a6)"/>
<rect x="760" y="130" width="130" height="60" rx="10" fill="#f6f8fb" stroke="#dfe4ec"/>
<text x="825" y="155" text-anchor="middle" font-weight="600" fill="#1c2430">Tableau Server</text>
<text x="825" y="175" text-anchor="middle" fill="#4a5566">REST · VDS</text>
<rect x="240" y="225" width="650" height="1" fill="#c9d1dc"/>
<text x="565" y="248" text-anchor="middle" fill="#7b8494" font-size="11">everything right of the browser runs on your network; only the LLM call may leave it</text>
</svg>